{"title":"Pixels {2015} HDCAM NEW SOURCE XViD AC3-MRG","uid":12167128,"size":1526309965,"categoryP":"video","categoryS":"movies","magnet":"?xt=urn:btih:8e697b6cb4494f71332015232d42219a97280e2c&amp;dn=Pixels+%7B2015%7D+HDCAM+NEW+SOURCE+XViD+AC3-MRG&amp;tr=udp%3A%2F%2Ftracker.openbittorrent.com%3A80&amp;tr=udp%3A%2F%2Fopen.demonii.com%3A1337&amp;tr=udp%3A%2F%2Ftracker.coppersurfer.tk%3A6969&amp;tr=udp%3A%2F%2Fexodus.desync.com%3A6969","seeders":28,"leechers":10,"uploader":"xxxlavalxxx","files":17,"time":1438066723,"description":" &lt;a href=&quot;http://extraimago.com/image/OSW&quot; rel=&quot;nofollow&quot; target=&quot;_NEW&quot;&gt;http://extraimago.com/image/OSW&lt;/a&gt;\n &lt;a href=&quot;\nhttp://www.imdb.com/title/tt2120120/&quot; rel=&quot;nofollow&quot; target=&quot;_NEW&quot;&gt;\nhttp://www.imdb.com/title/tt2120120/&lt;/a&gt;\n\n\nWhen aliens misinterpret video feeds of classic arcade games as a declaration of war, they attack the Earth in the form of the video games.\n\nDirector: Chris Columbus\nWriters: Tim Herlihy (screenplay), Timothy Dowling (screenplay)\nStars: Adam Sandler, Kevin James, Michelle Monaghan \nGenres: Action | Comedy | Sci-Fi\nCountry: USA\nLanguage: English\n\nFormat : AVI\nFormat/Info : Audio Video Interleave\nFile size : 1.42 GiB\nDuration : 1h 41mn\nOverall bit rate : 2 006 Kbps\nWriting library : VirtualDub build 35491/release\n\nVideo\nID : 0\nFormat : MPEG-4 Visual\nFormat profile : Advanced Simple@L5\nFormat settings, BVOP : 2\nFormat settings, QPel : No\nFormat settings, GMC : No warppoints\nFormat settings, Matrix : Default (H.263)\nCodec ID : XVID\nCodec ID/Hint : XviD\nDuration : 1h 41mn\nBit rate : 1 836 Kbps\nWidth : 640 pixels\nHeight : 292 pixels\nDisplay aspect ratio : 2.2:1\nFrame rate : 25.000 fps\nColor space : YUV\nChroma subsampling : 4:2:0\nBit depth : 8 bits\nScan type : Progressive\nCompression mode : Lossy\nBits/(Pixel*Frame) : 0.393\nStream size : 1.30 GiB (92%)\nWriting library : XviD 73\n\nAudio\nID : 1\nFormat : AC-3\nFormat/Info : Audio Coding 3\nMode extension : CM (complete main)\nFormat settings, Endianness : Big\nCodec ID : 2000\nDuration : 1h 41mn\nBit rate mode : Constant\nBit rate : 160 Kbps\nChannel(s) : 2 channels\nChannel positions : Front: L R\nSampling rate : 44.1 KHz\nCompression mode : Lossy\nStream size : 116 MiB (8%)\nAlignment : Split accross interleaves\nInterleave, duration : 40 ms (1.00 video frame)\nInterleave, preload duratio : 500 ms\n\n &lt;a href=&quot;\nhttp://extraimago.com/image/OSf&quot; rel=&quot;nofollow&quot; target=&quot;_NEW&quot;&gt;\nhttp://extraimago.com/image/OSf&lt;/a&gt; &lt;a href=&quot;\nhttp://extraimago.com/image/Oq8&quot; rel=&quot;nofollow&quot; target=&quot;_NEW&quot;&gt;\nhttp://extraimago.com/image/Oq8&lt;/a&gt; &lt;a href=&quot;\nhttp://extraimago.com/image/Oqa&quot; rel=&quot;nofollow&quot; target=&quot;_NEW&quot;&gt;\nhttp://extraimago.com/image/Oqa&lt;/a&gt; &lt;a href=&quot;\nhttp://extraimago.com/image/Oqw&quot; rel=&quot;nofollow&quot; target=&quot;_NEW&quot;&gt;\nhttp://extraimago.com/image/Oqw&lt;/a&gt; &lt;a href=&quot;\nhttp://extraimago.com/image/Oq2&quot; rel=&quot;nofollow&quot; target=&quot;_NEW&quot;&gt;\nhttp://extraimago.com/image/Oq2&lt;/a&gt; &lt;a href=&quot;\nhttp://extraimago.com/image/OqN&quot; rel=&quot;nofollow&quot; target=&quot;_NEW&quot;&gt;\nhttp://extraimago.com/image/OqN&lt;/a&gt; &lt;a href=&quot;\nhttp://extraimago.com/image/OqT&quot; rel=&quot;nofollow&quot; target=&quot;_NEW&quot;&gt;\nhttp://extraimago.com/image/OqT&lt;/a&gt; &lt;a href=&quot;\nhttp://extraimago.com/image/Oqj&quot; rel=&quot;nofollow&quot; target=&quot;_NEW&quot;&gt;\nhttp://extraimago.com/image/Oqj&lt;/a&gt; &lt;a href=&quot;\nhttp://extraimago.com/image/Oqn&quot; rel=&quot;nofollow&quot; target=&quot;_NEW&quot;&gt;\nhttp://extraimago.com/image/Oqn&lt;/a&gt; &lt;a href=&quot;\nhttp://extraimago.com/image/Oqs&quot; rel=&quot;nofollow&quot; target=&quot;_NEW&quot;&gt;\nhttp://extraimago.com/image/Oqs&lt;/a&gt; &lt;a href=&quot;\nhttp://extraimago.com/image/Oq7&quot; rel=&quot;nofollow&quot; target=&quot;_NEW&quot;&gt;\nhttp://extraimago.com/image/Oq7&lt;/a&gt; &lt;a href=&quot;\nhttp://extraimago.com/image/Oqc&quot; rel=&quot;nofollow&quot; target=&quot;_NEW&quot;&gt;\nhttp://extraimago.com/image/Oqc&lt;/a&gt; &lt;a href=&quot;\nhttp://extraimago.com/image/Oq1&quot; rel=&quot;nofollow&quot; target=&quot;_NEW&quot;&gt;\nhttp://extraimago.com/image/Oq1&lt;/a&gt;","torrent":{"xt":"urn:btih:8e697b6cb4494f71332015232d42219a97280e2c","amp;dn":"Pixels+%7B2015%7D+HDCAM+NEW+SOURCE+XViD+AC3-MRG","amp;tr":["udp%3A%2F%2Ftracker.openbittorrent.com%3A80","udp%3A%2F%2Fopen.demonii.com%3A1337","udp%3A%2F%2Ftracker.coppersurfer.tk%3A6969","udp%3A%2F%2Fexodus.desync.com%3A6969"],"infoHash":"8e697b6cb4494f71332015232d42219a97280e2c","infoHashBuffer":{"type":"Buffer","data":[142,105,123,108,180,73,79,113,51,32,21,35,45,66,33,154,151,40,14,44]},"announce":[],"urlList":[]}}